<svg width="68" height="61" viewBox="0 0 68 61" fill="none" xmlns="http://www.w3.org/2000/svg">
<path d="M68 30.5332C68 38.9149 64.1944 46.5031 58.0416 51.9958C51.8888 57.4886 43.3888 60.886 34 60.886C24.6112 60.886 16.1112 57.4886 9.95837 51.9958C3.80558 46.5031 0 38.9149 0 30.5332C0 22.1515 3.80558 14.5633 9.95837 9.07054C16.1112 3.57777 24.6112 0.18042 34 0.18042C43.3888 0.18042 51.8888 3.57777 58.0416 9.07054C64.1944 14.5633 68 22.1515 68 30.5332Z" fill="#E5E5E5"/>
<path d="M67.5 30.5332C67.5 38.7571 63.7671 46.2143 57.7086 51.6228C51.6493 57.0322 43.2684 60.386 34 60.386C24.7316 60.386 16.3507 57.0322 10.2914 51.6228C4.23285 46.2143 0.5 38.7571 0.5 30.5332C0.5 22.3092 4.23285 14.8521 10.2914 9.44353C16.3507 4.03414 24.7316 0.68042 34 0.68042C43.2684 0.68042 51.6493 4.03414 57.7086 9.44353C63.7671 14.8521 67.5 22.3092 67.5 30.5332Z" stroke="black" stroke-opacity="0.3"/>
</svg>
